<?xml version="1.0" encoding="UTF-8"?>
<svg version="1.1" xmlns="http://www.w3.org/2000/svg" width="1024" height="1024">
<path d="M0 0 C1.26724915 -0.00705963 2.53449829 -0.01411926 3.84014893 -0.02139282 C7.90779708 -0.03890782 11.97529077 -0.04608507 16.04296875 -0.046875 C16.73710247 -0.04716957 17.43123619 -0.04746414 18.14640427 -0.04776764 C39.32045673 -0.04921885 60.22527952 0.23250548 81.23046875 3.203125 C81.93619019 3.30022766 82.64191162 3.39733032 83.36901855 3.49737549 C178.35421118 16.57579864 268.51038733 54.56539108 345.23046875 118.203125 C345.7620459 118.64978516 346.29362305 119.09644531 346.84130859 119.55664062 C359.81360118 130.48456792 372.09658329 141.98070257 384.10546875 153.953125 C384.60392303 154.44890045 385.10237732 154.9446759 385.61593628 155.45547485 C391.3749328 161.19098222 396.96491294 167.0082537 402.23046875 173.203125 C403.1795273 174.28643906 404.12999531 175.36852034 405.08203125 176.44921875 C412.88279975 185.39319133 420.12577816 194.70037764 427.23046875 204.203125 C427.70871094 204.83863281 428.18695312 205.47414062 428.6796875 206.12890625 C478.62438453 272.58193452 511.12493019 350.99019987 529.43359375 494.97265625 C529.4441832 496.87352997 529.4441832 496.87352997 529.45498657 498.81280518 C529.47250157 502.88045333 529.47967882 506.94794702 529.48046875 511.015625 C529.48076332 511.70975872 529.48105789 512.40389244 529.48136139 513.11906052 C529.4828126 534.29311298 529.20108827 555.19793577 526.23046875 576.203125 C526.08481476 577.26170715 526.08481476 577.26170715 525.93621826 578.3416748 C512.85779511 673.32686743 474.86820267 763.48304358 411.23046875 840.203125 C410.78380859 840.73470215 410.33714844 841.2662793 409.87695312 841.81396484 C398.94902583 854.78625743 387.45289118 867.06923954 375.48046875 879.078125 C374.9846933 879.57657928 374.48891785 880.07503357 373.9781189 880.58859253 C368.24261153 886.34758905 362.42534005 891.93756919 356.23046875 897.203125 C355.14715469 898.15218355 354.06507341 899.10265156 352.984375 900.0546875 C344.04040242 907.855456 334.73321611 915.09843441 325.23046875 922.203125 C324.27720703 922.92048828 324.27720703 922.92048828 323.3046875 923.65234375 C256.85165923 973.59704078 178.44339388 1006.09758644 34.4609375 1024.40625 C32.56006378 1024.41683945 32.56006378 1024.41683945 30.62078857 1024.42764282 C26.55314042 1024.44515782 22.48564673 1024.45233507 18.41796875 1024.453125 C17.72383503 1024.45341957 17.02970131 1024.45371414 16.31453323 1024.45401764 C-4.85951923 1024.45546885 -25.76434202 1024.17374452 -46.76953125 1021.203125 C-47.47525269 1021.10602234 -48.18097412 1021.00891968 -48.90808105 1020.90887451 C-143.89327368 1007.83045136 -234.04944983 969.84085892 -310.76953125 906.203125 C-311.3011084 905.75646484 -311.83268555 905.30980469 -312.38037109 904.84960938 C-325.35266368 893.92168208 -337.63564579 882.42554743 -349.64453125 870.453125 C-350.14298553 869.95734955 -350.64143982 869.4615741 -351.15499878 868.95077515 C-356.9139953 863.21526778 -362.50397544 857.3979963 -367.76953125 851.203125 C-368.7185898 850.11981094 -369.66905781 849.03772966 -370.62109375 847.95703125 C-378.42186225 839.01305867 -385.66484066 829.70587236 -392.76953125 820.203125 C-393.48689453 819.24986328 -393.48689453 819.24986328 -394.21875 818.27734375 C-444.16344703 751.82431548 -476.66399269 673.41605013 -494.97265625 529.43359375 C-494.97971588 528.1663446 -494.98677551 526.89909546 -494.99404907 525.59344482 C-495.01156407 521.52579667 -495.01874132 517.45830298 -495.01953125 513.390625 C-495.01982582 512.69649128 -495.02012039 512.00235756 -495.02042389 511.28718948 C-495.0218751 490.11313702 -494.74015077 469.20831423 -491.76953125 448.203125 C-491.67242859 447.49740356 -491.57532593 446.79168213 -491.47528076 446.0645752 C-478.39685761 351.07938257 -440.40726517 260.92320642 -376.76953125 184.203125 C-376.32287109 183.67154785 -375.87621094 183.1399707 -375.41601562 182.59228516 C-364.48808833 169.61999257 -352.99195368 157.33701046 -341.01953125 145.328125 C-340.5237558 144.82967072 -340.02798035 144.33121643 -339.5171814 143.81765747 C-333.78167403 138.05866095 -327.96440255 132.46868081 -321.76953125 127.203125 C-320.68621719 126.25406645 -319.60413591 125.30359844 -318.5234375 124.3515625 C-309.57946492 116.550794 -300.27227861 109.30781559 -290.76953125 102.203125 C-290.13402344 101.72488281 -289.49851562 101.24664062 -288.84375 100.75390625 C-222.39072173 50.80920922 -143.98245638 18.30866356 0 0 Z " fill="#30507A" transform="translate(494.76953125,-0.203125)"/>
<path d="M0 0 C1.04273575 0.00040787 1.04273575 0.00040787 2.10653687 0.00082397 C13.97576807 0.02203691 25.66789399 0.59893414 37.4375 2.1875 C38.59983154 2.34025391 38.59983154 2.34025391 39.78564453 2.49609375 C45.36400371 3.24932916 50.90108912 4.17316248 56.4375 5.1875 C57.28940918 5.34025391 58.14131836 5.49300781 59.01904297 5.65039062 C111.03066661 15.21969063 161.32679935 40.34936715 200.22265625 76.15625 C202.19589244 77.96591988 204.20857813 79.70589891 206.25 81.4375 C214.98250349 89.07402127 223.08326635 97.37234419 230.27734375 106.47265625 C232.50966068 109.27819019 234.84355484 111.97484436 237.1875 114.6875 C254.89644634 135.92171093 270.26452014 161.65408303 280.15673828 187.47827148 C281.46590353 190.95572275 281.46590353 190.95572275 284.328125 193.08984375 C285.02421875 193.12207031 285.7203125 193.15429688 286.4375 193.1875 C287.18644531 193.26613281 287.93539062 193.34476563 288.70703125 193.42578125 C298.30465757 193.7058963 306.99545844 190.98774151 316.0390625 187.99609375 C326.81967274 184.43973152 326.81967274 184.43973152 332.4375 186.1875 C335.01626724 188.76626724 334.7940453 189.90465887 334.875 193.5 C334.50288515 210.82401369 322.66213022 224.16111047 311.4375 236.1875 C309.65941084 238.24765551 307.8940895 240.3173054 306.140625 242.3984375 C304.4375 244.1875 304.4375 244.1875 301.73046875 246.03515625 C299.16002715 247.98725942 299.16002715 247.98725942 299.09765625 250.97265625 C299.23042969 252.05417969 299.36320313 253.13570312 299.5 254.25 C299.72634947 256.1672071 299.95256698 258.08443003 300.17765808 260.00178528 C300.34655296 261.42247991 300.51905297 262.84275222 300.695755 264.26249695 C302.29151481 277.1370087 302.80129571 289.84536615 302.75 302.8125 C302.74726578 304.25600327 302.74726578 304.25600327 302.74447632 305.72866821 C302.69671345 320.74939021 302.07543027 335.36763839 299.4375 350.1875 C299.26057617 351.21246582 299.08365234 352.23743164 298.90136719 353.29345703 C296.33598709 367.85941054 292.90111262 382.08898266 288.4375 396.1875 C288.05537354 397.40566406 288.05537354 397.40566406 287.66552734 398.6484375 C282.11586815 416.07332354 274.7465802 432.97758073 265.57714844 448.80493164 C264.17976826 451.33112523 264.17976826 451.33112523 264.25 455.0625 C265.70134709 458.88183444 267.35719395 460.508973 270.4375 463.1875 C276.94441109 469.2140351 281.92670498 474.93235437 282.67578125 484.10546875 C282.94383341 495.91387184 280.04019156 502.05198375 272.00390625 510.578125 C268.36021314 514.28282362 264.6829088 517.95172228 260.98828125 521.60546875 C258.8971604 523.72220824 256.92655782 525.860943 255 528.125 C250.15915757 533.80413466 244.74615725 538.95134338 239.4375 544.1875 C238.7775 544.8475 238.1175 545.5075 237.4375 546.1875 C236.92960938 545.69378906 236.42171875 545.20007813 235.8984375 544.69140625 C232.79150514 541.79974823 230.23071011 539.49856279 226.25 537.9375 C223.23653604 537.97509247 223.23653604 537.97509247 220.5 540.1875 C218.14549088 543.05444451 218.14549088 543.05444451 218.25 546.625 C219.78702775 551.23608326 221.80411875 553.01795466 225.4375 556.1875 C224.4375 559.1875 224.4375 559.1875 221.4375 560.8125 C214.15901278 563.6199165 206.77430401 563.97042566 199.4375 561.1875 C194.9904011 558.77502151 191.28620185 556.11900204 187.875 552.375 C185.15771716 549.93641284 183.21060782 549.39918906 179.60717773 549.04663086 C175.59934914 549.30684433 172.90560064 551.55892413 169.75 553.875 C168.25462119 554.90328108 166.7557619 555.92651449 165.25390625 556.9453125 C164.47031738 557.4805957 163.68672852 558.01587891 162.87939453 558.56738281 C119.20941907 587.54098381 64.49142836 605.13143777 11.9609375 605.390625 C11.00078232 605.39768463 10.04062714 605.40474426 9.05137634 605.41201782 C-31.14949213 605.64051602 -31.14949213 605.64051602 -49.5625 602.1875 C-51.22321533 601.88150879 -51.22321533 601.88150879 -52.91748047 601.56933594 C-100.10313332 592.64530469 -144.79644563 573.92312475 -182.99609375 544.58203125 C-183.94613281 543.85371094 -184.89617187 543.12539063 -185.875 542.375 C-186.65488281 541.74980469 -187.43476563 541.12460937 -188.23828125 540.48046875 C-191.38552633 538.72964838 -192.99702737 538.58593627 -196.5625 539.1875 C-199.25073961 540.72347803 -201.60238709 542.61123822 -204 544.5625 C-212.2915601 551.25006331 -219.85664997 553.32908609 -230.5625 552.1875 C-239.0036944 549.72495607 -244.46908302 544.67223394 -249.6875 537.75 C-253.36971294 532.96061827 -257.12625215 528.27048277 -261.0625 523.6875 C-265.53862847 518.4662919 -269.82355403 513.11627097 -274.03515625 507.6796875 C-275.79889285 505.40677694 -277.52572042 503.22427958 -279.5625 501.1875 C-279.3544186 498.62962137 -278.961589 497.53157673 -277.00390625 495.84375 C-276.38386719 495.4621875 -275.76382813 495.080625 -275.125 494.6875 C-271.36407367 492.20304925 -271.36407367 492.20304925 -269.5625 488.1875 C-269.70323938 484.73938522 -269.9644979 482.874095 -272.25 480.25 C-275.58954546 478.71561425 -277.05866721 479.0420162 -280.5625 480.1875 C-282.74845508 481.66383534 -284.79226885 483.23333675 -286.828125 484.91015625 C-288.5625 486.1875 -288.5625 486.1875 -290.5625 486.1875 C-293.69727996 479.51668825 -293.760448 471.51616779 -291.8046875 464.44921875 C-289.03222653 457.95467435 -285.05030617 453.33493455 -279.4375 449.0625 C-274.36633651 445.33878039 -274.36633651 445.33878039 -272.16015625 439.63671875 C-272.74629917 434.6118236 -274.86664895 430.55068209 -277 426 C-290.52661678 395.94461168 -297.76649758 364.81718637 -301.5625 332.1875 C-301.72262573 330.85428711 -301.72262573 330.85428711 -301.88598633 329.49414062 C-302.55517991 323.50136226 -302.68303242 317.58894408 -302.625 311.5625 C-302.61823242 310.19931641 -302.61823242 310.19931641 -302.61132812 308.80859375 C-302.59971178 306.60148911 -302.58338168 304.39453303 -302.5625 302.1875 C-302.2325 302.1875 -301.9025 302.1875 -301.5625 302.1875 C-301.43572876 303.02220825 -301.43572876 303.02220825 -301.30639648 303.8737793 C-297.43650774 328.66184859 -291.11382376 353.20237464 -272.5625 371.1875 C-271.91667969 371.84234375 -271.27085937 372.4971875 -270.60546875 373.171875 C-262.42607998 380.96811522 -251.59346439 385.11148175 -240.375 385.5 C-219.26248014 384.97654909 -202.00717315 373.27454465 -187.875 358.5 C-162.34097732 330.06406573 -148.40080489 292.20843936 -141.5625 255.1875 C-141.39878906 254.37361816 -141.23507812 253.55973633 -141.06640625 252.72119141 C-138.39383418 239.21200221 -138.25181896 225.65842756 -138.1875 211.9375 C-138.17558121 210.60131119 -138.17558121 210.60131119 -138.16342163 209.23812866 C-138.07910752 196.92642583 -139.07815621 185.24940469 -141.5625 173.1875 C-141.70745911 172.48264465 -141.85241821 171.77778931 -142.00177002 171.05157471 C-146.6462602 148.84718262 -156.62415283 125.16988217 -176.125 112.1875 C-187.29080204 105.5859367 -200.0658867 103.18376635 -212.8125 106.1875 C-222.20695473 109.03596441 -231.23549548 114.04340455 -239.5625 119.1875 C-231.11882576 100.34156729 -208.45393633 81.68876325 -192.5625 69.1875 C-191.39663181 68.23397438 -190.2326746 67.27810897 -189.0703125 66.3203125 C-175.43556097 55.1380222 -160.87524923 45.89453309 -145.5625 37.1875 C-144.96034668 36.83977539 -144.35819336 36.49205078 -143.73779297 36.13378906 C-100.66810924 11.38109726 -49.35574737 -0.07343391 0 0 Z " fill="#FEFEFE" transform="translate(531.5625,201.8125)"/>
<path d="M0 0 C7.71221435 5.77399527 12.31801821 14.29959212 14.22265625 23.6640625 C15.47334087 35.4318678 11.979785 46.09146344 5.22265625 55.6640625 C6.58390625 56.0971875 6.58390625 56.0971875 7.97265625 56.5390625 C10.55363916 57.43247966 12.81107951 58.41633367 15.22265625 59.6640625 C15.38483643 59.12313965 15.5470166 58.5822168 15.71411133 58.02490234 C17.57345525 52.11382536 19.99268853 46.74821693 22.91015625 41.2890625 C23.35367432 40.45689209 23.79719238 39.62472168 24.25415039 38.76733398 C34.44140472 19.98669967 48.74332644 3.60549419 68.9375 -4.4140625 C77.65741684 -6.86103084 88.81555511 -6.64689178 97.02734375 -2.65234375 C113.13479541 7.00639506 121.45498678 22.56836854 126.37890625 40.2265625 C126.7965625 41.928125 126.7965625 41.928125 127.22265625 43.6640625 C127.52171875 44.8809375 127.82078125 46.0978125 128.12890625 47.3515625 C133.12625717 70.41971638 131.16089381 95.81101898 126.22265625 118.6640625 C125.94977783 119.94410156 125.94977783 119.94410156 125.67138672 121.25 C120.32948474 145.46280327 110.09505908 168.56800471 94.22265625 187.6640625 C93.69027344 188.34855469 93.15789062 189.03304687 92.609375 189.73828125 C84.46680709 199.94516216 71.37046756 209.34448785 58.31640625 211.44921875 C57.62546875 211.52011719 56.93453125 211.59101562 56.22265625 211.6640625 C55.53171875 211.74527344 54.84078125 211.82648438 54.12890625 211.91015625 C44.27850393 212.499039 34.59295096 208.97144971 27.203125 202.55078125 C26.54957031 201.92816406 25.89601563 201.30554688 25.22265625 200.6640625 C24.62066406 200.11363281 24.01867187 199.56320312 23.3984375 198.99609375 C5.36344443 180.63687609 1.9911688 150.19273286 2.1875 125.8125 C2.19910156 124.77351562 2.21070313 123.73453125 2.22265625 122.6640625 C1.13597656 122.2928125 1.13597656 122.2928125 0.02734375 121.9140625 C-9.10943727 117.84195954 -16.38123418 108.45628165 -20.77734375 99.6640625 C-21.20144531 100.24414062 -21.62554687 100.82421875 -22.0625 101.421875 C-29.79571574 111.7214986 -37.00595475 116.90127223 -49.77734375 119.6640625 C-59.43699432 120.43070143 -68.83393476 118.22174754 -76.71484375 112.4140625 C-84.85994241 105.37287831 -89.95081971 97.06904322 -91.16015625 86.234375 C-91.53971424 74.67050811 -88.61098983 65.2527588 -80.77734375 56.6640625 C-73.93870842 49.42216612 -65.58499641 46.39055529 -55.77734375 45.6640625 C-56.27234375 44.6740625 -56.76734375 43.6840625 -57.27734375 42.6640625 C-60.6238265 33.64937453 -59.96712732 21.95343102 -56.234375 13.1953125 C-50.54951081 3.31919455 -42.61654739 -3.19250293 -31.71484375 -6.1484375 C-20.02713531 -8.70512372 -10.04508116 -6.46323764 0 0 Z " fill="#FEFEFE" transform="translate(237.77734375,339.3359375)"/>
<path d="M0 0 C3.51658423 2.84174676 5.90222268 5.93208988 8.21875 9.79296875 C8.65832031 10.49808594 9.09789062 11.20320313 9.55078125 11.9296875 C20.57282518 31.54293184 19.61718714 57.58710004 14.21875 78.79296875 C14.05246094 79.45022949 13.88617188 80.10749023 13.71484375 80.78466797 C8.17947785 101.82418372 -1.55095042 122.254789 -20.78125 133.79296875 C-26.89624921 137.35078647 -32.86250592 137.71076133 -39.78125 136.79296875 C-49.13443028 133.92324298 -54.87093408 127.61799962 -59.46875 119.23046875 C-63.03915376 111.61676006 -66.21708033 102.26744734 -65.78125 93.79296875 C-65.26820313 93.93734375 -64.75515625 94.08171875 -64.2265625 94.23046875 C-51.96350439 97.20333132 -36.49659823 98.05641146 -25.39453125 91.3515625 C-18.96251882 86.76941811 -13.41440858 80.70660913 -11.78125 72.79296875 C-10.60092943 56.74060895 -11.49426673 40.48585039 -21.71875 27.29296875 C-26.95139576 23.4874082 -32.54872546 23.26445067 -38.78125 23.79296875 C-41.38523526 24.27093961 -43.9490403 24.81981563 -46.51953125 25.453125 C-48.93526867 25.81611145 -50.47869505 25.54643639 -52.78125 24.79296875 C-44.47860431 11.95969154 -36.14522468 0.04762191 -20.8671875 -4.81640625 C-13.18276476 -6.25543673 -6.38970517 -4.25643335 0 0 Z " fill="#30507A" transform="translate(315.78125,374.20703125)"/>
</svg>
