<?xml version="1.0" encoding="UTF-8"?>
<svg version="1.1" xmlns="http://www.w3.org/2000/svg" width="768" height="768">
<path d="M0 0 C1.23845673 0.00149048 2.47691345 0.00298096 3.75289917 0.0045166 C21.53992337 0.04304123 38.91269713 0.47849808 56.5 3.3125 C58.42574722 3.59398293 60.35152855 3.87523255 62.27734375 4.15625 C97.93742257 9.63098354 132.96487151 20.8038803 165.5 36.3125 C166.85037354 36.95251953 166.85037354 36.95251953 168.22802734 37.60546875 C199.19211477 52.39089158 227.76094676 71.63701119 253.5 94.3125 C254.21293213 94.93785645 254.92586426 95.56321289 255.66040039 96.20751953 C262.13432234 101.953312 268.32311533 107.94938772 274.44116211 114.06835938 C276.05890192 115.6839068 277.68450636 117.29125034 279.31054688 118.8984375 C285.82615798 125.37895555 291.80589127 132.08511247 297.5 139.3125 C298.524707 140.56726211 299.55173333 141.82013708 300.58203125 143.0703125 C312.48248572 157.68576427 322.9878225 173.04550389 332.5 189.3125 C332.91459473 190.01922852 333.32918945 190.72595703 333.75634766 191.45410156 C359.6695852 235.96776448 376.15686571 285.2171698 382.5 336.3125 C382.58720306 336.99195679 382.67440613 337.67141357 382.76425171 338.37145996 C384.66218175 353.51065074 384.85892714 368.56976915 384.8125 383.8125 C384.80976578 385.67217911 384.80976578 385.67217911 384.80697632 387.56942749 C384.76294091 405.34036656 384.43681778 422.75123857 381.5 440.3125 C381.32307617 441.41577637 381.14615234 442.51905273 380.96386719 443.65576172 C374.98382213 480.30548517 364.48814337 515.7713913 348.5 549.3125 C348.07332031 550.21274902 347.64664063 551.11299805 347.20703125 552.04052734 C332.47097522 582.9012293 313.29386626 611.80932721 290.5 637.3125 C289.71367188 638.2096875 288.92734375 639.106875 288.1171875 640.03125 C282.14012766 646.71940699 275.84233918 653.09752405 269.52529907 659.46243286 C268.52569029 660.47008155 267.52756645 661.47920601 266.53109741 662.48995972 C259.87307322 669.23322957 252.93610253 675.4239345 245.5 681.3125 C244.28027638 682.31364009 243.06250937 683.31717403 241.84765625 684.32421875 C227.27839362 696.24789522 211.85656841 706.9906064 195.5 716.3125 C194.84451172 716.69293457 194.18902344 717.07336914 193.51367188 717.46533203 C152.70682026 741.12750405 108.2253476 756.92798082 61.6875 764.5625 C60.77154053 764.71364258 59.85558105 764.86478516 58.91186523 765.02050781 C39.61314373 767.99548254 20.44057888 768.68606141 0.9375 768.625 C-0.3014502 768.62284485 -1.54040039 768.6206897 -2.81689453 768.61846924 C-20.55697355 768.56892394 -37.9676349 768.25882679 -55.5 765.3125 C-56.73862793 765.11382324 -57.97725586 764.91514648 -59.25341797 764.71044922 C-130.52687985 753.16804337 -198.5065109 722.58937944 -252.5 674.3125 C-253.22034424 673.67828125 -253.94068848 673.0440625 -254.68286133 672.390625 C-261.14900037 666.65274533 -267.33093702 660.66778941 -273.44116211 654.55664062 C-275.05890192 652.9410932 -276.68450636 651.33374966 -278.31054688 649.7265625 C-284.82632106 643.2458197 -290.80287382 636.53769933 -296.5 629.3125 C-297.50084453 628.09253385 -298.50435758 626.87474699 -299.51171875 625.66015625 C-311.43539522 611.09089362 -322.1781064 595.66906841 -331.5 579.3125 C-331.88043457 578.65701172 -332.26086914 578.00152344 -332.65283203 577.32617188 C-356.31500405 536.51932026 -372.11548082 492.0378476 -379.75 445.5 C-379.97671387 444.12606079 -379.97671387 444.12606079 -380.20800781 442.72436523 C-383.18302797 423.42534902 -383.87211513 404.25329236 -383.8125 384.75 C-383.81067719 383.51271149 -383.80885437 382.27542297 -383.80697632 381.00064087 C-383.7629156 363.24819169 -383.43376664 345.8555166 -380.5 328.3125 C-380.32307617 327.20922363 -380.14615234 326.10594727 -379.96386719 324.96923828 C-373.98382213 288.31951483 -363.48814337 252.8536087 -347.5 219.3125 C-347.07332031 218.41225098 -346.64664063 217.51200195 -346.20703125 216.58447266 C-331.42160842 185.62038523 -312.17548881 157.05155324 -289.5 131.3125 C-288.87464355 130.59956787 -288.24928711 129.88663574 -287.60498047 129.15209961 C-281.859188 122.67817766 -275.86311228 116.48938467 -269.74414062 110.37133789 C-268.1285932 108.75359808 -266.52124966 107.12799364 -264.9140625 105.50195312 C-258.43354445 98.98634202 -251.72738753 93.00660873 -244.5 87.3125 C-243.24523789 86.287793 -241.99236292 85.26076667 -240.7421875 84.23046875 C-226.12673573 72.33001428 -210.76699611 61.8246775 -194.5 52.3125 C-193.43990723 51.69060791 -193.43990723 51.69060791 -192.35839844 51.05615234 C-151.20314227 27.09798176 -106.48930146 11.74642071 -59.5625 4.0625 C-58.18179321 3.83578613 -58.18179321 3.83578613 -56.77319336 3.60449219 C-53.68664642 3.1276932 -50.59790275 2.70932429 -47.5 2.3125 C-46.82870056 2.22529694 -46.15740112 2.13809387 -45.46575928 2.04824829 C-30.32066902 0.14016081 -15.24899741 -0.04531459 0 0 Z " fill="#30507A" transform="translate(383.5,-0.3125)"/>
<path d="M0 0 C16.29850528 -0.51588285 32.59433275 -0.90277822 48.89904881 -1.13986778 C56.47153961 -1.25292786 64.03893677 -1.40675093 71.6081543 -1.65966797 C78.21263411 -1.88024252 84.81342674 -2.02115994 91.42148727 -2.06994689 C94.91703115 -2.09844758 98.40203866 -2.1643531 101.89416695 -2.32606125 C122.997197 -3.26564269 122.997197 -3.26564269 129.61005783 2.1293869 C134.23331508 7.32356704 137.52081913 13.09245323 140.60082817 19.29600143 C142.64194925 23.24061235 145.15588779 26.78077931 147.75 30.375 C148.63299553 31.65172267 149.5135724 32.93012502 150.390625 34.2109375 C150.81923828 34.83323242 151.24785156 35.45552734 151.68945312 36.09667969 C153.96155061 39.39646956 156.23057913 42.69836901 158.5 46 C159.41665286 47.33334282 160.33331951 48.66667617 161.25 50 C170.41666667 63.33333333 179.58333333 76.66666667 188.75 90 C189.20358887 90.6597583 189.65717773 91.3195166 190.12451172 91.99926758 C191.04283361 93.33502333 191.9611278 94.67079812 192.87939453 96.0065918 C195.14551157 99.30301745 197.41208059 102.59913027 199.6796875 105.89453125 C205.18011682 113.8893413 210.66681548 121.89340544 216.14379883 129.90429688 C220.21724753 135.86074913 224.3021706 141.80921526 228.3984375 147.75 C230.96608255 151.47825241 233.49826429 155.22717455 236 159 C239.83945182 157.48147523 241.67491055 155.22197262 244.1875 152 C247.19119376 148.22448968 250.24292994 144.55939005 253.5 141 C256.59555196 137.60401318 259.55151207 134.13828469 262.4375 130.5625 C266.29708603 125.79003797 270.37199991 121.26890891 274.52734375 116.75390625 C277.74709519 113.16792716 280.75905176 109.43298508 283.78515625 105.68359375 C285.95632827 103.05291443 288.20241357 100.52057576 290.5 98 C293.61458668 94.58260628 296.5918662 91.0947765 299.5 87.5 C303.11149134 83.03579543 306.88660694 78.76997886 310.75390625 74.52734375 C313.06187598 71.93037607 315.25555863 69.26595987 317.4375 66.5625 C321.29825137 61.788597 325.37437075 57.26611572 329.53125 52.75 C331.94378104 50.06262366 334.2325621 47.31034556 336.5 44.5 C339.55348679 40.71539666 342.70668301 37.07792463 346 33.5 C350.10934657 29.03497583 353.96235486 24.4193052 357.7734375 19.69921875 C360.66394248 16.19511535 363.6948678 12.83423103 366.76171875 9.484375 C368.91856055 7.19189323 368.91856055 7.19189323 370.22593689 5.25016785 C373.8186962 0.37053709 373.8186962 0.37053709 376.96385193 -0.61599731 C379.23314555 -0.80782306 381.4048125 -0.78918593 383.6796875 -0.68359375 C384.49245148 -0.67368912 385.30521545 -0.66378448 386.14260864 -0.65357971 C388.72195993 -0.61459547 391.29695034 -0.52682167 393.875 -0.4375 C395.63014657 -0.40236469 397.38536031 -0.37042955 399.140625 -0.34179688 C403.42874679 -0.26488812 407.7136359 -0.1442313 412 0 C408.45620298 4.86570786 404.81958866 9.43554683 400.6875 13.8125 C396.32812917 18.48034136 392.25215213 23.3079322 388.24609375 28.28515625 C385.9116941 31.10673495 383.48009402 33.80590712 381 36.5 C376.88621091 40.9698512 373.02912703 45.59044893 369.21484375 50.31640625 C366.33519113 53.80550916 363.29306124 57.12996921 360.24609375 60.47265625 C357.93812402 63.06962393 355.74444137 65.73404013 353.5625 68.4375 C349.70291397 73.20996203 345.62800009 77.73109109 341.47265625 82.24609375 C338.25290481 85.83207284 335.24094824 89.56701492 332.21484375 93.31640625 C330.04367173 95.94708557 327.79758643 98.47942424 325.5 101 C322.38541332 104.41739372 319.4081338 107.9052235 316.5 111.5 C312.88850866 115.96420457 309.11339306 120.23002114 305.24609375 124.47265625 C302.93812402 127.06962393 300.74444137 129.73404013 298.5625 132.4375 C294.70291397 137.20996203 290.62800009 141.73109109 286.47265625 146.24609375 C283.25290481 149.83207284 280.24094824 153.56701492 277.21484375 157.31640625 C275.04367173 159.94708557 272.79758643 162.47942424 270.5 165 C264.67769891 171.39431663 259.14309834 178.04549596 254 185 C255.1171875 186.625 256.234375 188.25 257.3515625 189.875 C257.83367187 190.57625 258.31578125 191.2775 258.8125 192 C259.55693359 193.0828125 259.55693359 193.0828125 260.31640625 194.1875 C261.87760417 196.45833333 263.43880208 198.72916667 265 201 C265.46970215 201.68320312 265.9394043 202.36640625 266.42333984 203.0703125 C267.10130615 204.05644531 267.10130615 204.05644531 267.79296875 205.0625 C268.24051514 205.71347656 268.68806152 206.36445313 269.14916992 207.03515625 C283.34944661 227.69010417 297.54972331 248.34505208 311.75 269 C312.20358887 269.6597583 312.65717773 270.3195166 313.12451172 270.99926758 C314.04283361 272.33502333 314.9611278 273.67079812 315.87939453 275.0065918 C318.14551157 278.30301745 320.41208059 281.59913027 322.6796875 284.89453125 C328.18518464 292.89670733 333.67634388 300.90854995 339.15917969 308.92626953 C343.98034499 315.97489904 348.81630573 323.013269 353.65722656 330.04833984 C355.93908519 333.36491764 358.21945755 336.6825171 360.5 340 C361.41665976 341.33333808 362.33332642 342.66667142 363.25 344 C376.08333333 362.66666667 388.91666667 381.33333333 401.75 400 C402.2042334 400.66064453 402.6584668 401.32128906 403.12646484 402.00195312 C404.03846998 403.32862395 404.95025566 404.65544567 405.86181641 405.98242188 C408.22298102 409.41899349 410.58847875 412.85246371 412.9609375 416.28125 C413.44884766 416.98765625 413.93675781 417.6940625 414.43945312 418.421875 C415.36119257 419.75620258 416.28425639 421.08961682 417.20898438 422.421875 C419.43511663 425.64756436 421.58662887 428.90402758 423.65673828 432.23242188 C424.09817169 432.94136597 424.5396051 433.65031006 424.99441528 434.3807373 C425.32625824 434.91509399 425.6581012 435.44945068 426 436 C409.70149472 436.51588285 393.40566725 436.90277822 377.10095119 437.13986778 C369.52846039 437.25292786 361.96106323 437.40675093 354.3918457 437.65966797 C347.78736589 437.88024252 341.18657326 438.02115994 334.57851273 438.06994689 C331.08296885 438.09844758 327.59796134 438.1643531 324.10583305 438.32606125 C303.002803 439.26564269 303.002803 439.26564269 296.38994217 433.8706131 C291.76668492 428.67643296 288.47918087 422.90754677 285.39917183 416.70399857 C283.35805075 412.75938765 280.84411221 409.21922069 278.25 405.625 C277.36700447 404.34827733 276.4864276 403.06987498 275.609375 401.7890625 C275.18076172 401.16676758 274.75214844 400.54447266 274.31054688 399.90332031 C272.0384494 396.60353046 269.76940398 393.30164258 267.5 390 C264.77415956 386.03465906 262.04802677 382.069521 259.3203125 378.10546875 C253.81481536 370.10329267 248.32365612 362.09145005 242.84082031 354.07373047 C238.01965501 347.02510096 233.18369427 339.986731 228.34277344 332.95166016 C226.06091481 329.63508236 223.78054245 326.3174829 221.5 323 C220.58334024 321.66666192 219.66667358 320.33332858 218.75 319 C216.91666667 316.33333333 215.08333333 313.66666667 213.25 311 C212.79616943 310.33991943 212.34233887 309.67983887 211.87475586 308.99975586 C210.95876482 307.66733131 210.04291179 306.33481187 209.12719727 305.00219727 C206.82631993 301.65416509 204.52301524 298.3078522 202.21484375 294.96484375 C196.05390291 286.03488009 189.99093816 277.04488712 184 268 C179.71716398 269.57576042 177.31491559 272.8382044 174.5 276.25 C173.42726025 277.5261904 172.35433854 278.80222786 171.28125 280.078125 C170.73597656 280.73103516 170.19070313 281.38394531 169.62890625 282.05664062 C167.11162711 285.05986933 164.55522898 288.02906771 162 291 C160.99846963 292.167773 159.99716813 293.33574233 158.99609375 294.50390625 C158.50093262 295.08156738 158.00577148 295.65922852 157.49560547 296.25439453 C156.00806221 297.99059014 154.52148492 299.72760829 153.03515625 301.46484375 C147.33272169 308.12768834 141.60614311 314.76871705 135.85791016 321.39208984 C130.70838251 327.32888478 125.59299766 333.29453455 120.48388672 339.26611328 C117.49074584 342.76352798 114.4937777 346.25766391 111.49755859 349.75244141 C109.00885709 352.65552183 106.52102448 355.5593367 104.03515625 358.46484375 C98.33272169 365.12768834 92.60614311 371.76871705 86.85791016 378.39208984 C81.20992892 384.90354268 75.60318688 391.45000398 70 398 C63.76732406 405.28585419 57.52524223 412.56324497 51.25 419.8125 C50.743479 420.39829834 50.23695801 420.98409668 49.71508789 421.58764648 C48.69549662 422.76397131 47.66108572 423.92759192 46.61328125 425.07885742 C44.91436282 427.01134794 44.91436282 427.01134794 43.48046875 429.4309082 C41.19818523 432.73573532 39.1846409 435.46812772 35.11486816 436.45895386 C29.58261482 437.12431431 24.05072989 436.81945828 18.5 436.5625 C16.80218955 436.51730066 15.10426343 436.4762456 13.40625 436.43945312 C9.2679534 436.34081296 5.13526004 436.18585795 1 436 C2.61817175 432.59170063 4.47765964 430.20469242 7.0625 427.4375 C10.33018473 423.87703072 13.46479193 420.2606708 16.5 416.5 C20.11149134 412.03579543 23.88660694 407.76997886 27.75390625 403.52734375 C30.06187598 400.93037607 32.25555863 398.26595987 34.4375 395.5625 C38.29708603 390.79003797 42.37199991 386.26890891 46.52734375 381.75390625 C49.74709519 378.16792716 52.75905176 374.43298508 55.78515625 370.68359375 C58.66480887 367.19449084 61.70693876 363.87003079 64.75390625 360.52734375 C67.06187598 357.93037607 69.25555863 355.26595987 71.4375 352.5625 C75.29708603 347.79003797 79.37199991 343.26890891 83.52734375 338.75390625 C86.74709519 335.16792716 89.75905176 331.43298508 92.78515625 327.68359375 C95.66480887 324.19449084 98.70693876 320.87003079 101.75390625 317.52734375 C104.06187598 314.93037607 106.25555863 312.26595987 108.4375 309.5625 C112.29708603 304.79003797 116.37199991 300.26890891 120.52734375 295.75390625 C123.74709519 292.16792716 126.75905176 288.43298508 129.78515625 284.68359375 C132.66480887 281.19449084 135.70693876 277.87003079 138.75390625 274.52734375 C141.06187598 271.93037607 143.25555863 269.26595987 145.4375 266.5625 C148.59606736 262.65716102 151.85999606 258.89390431 155.25 255.1875 C156.07628906 254.28128906 156.90257812 253.37507812 157.75390625 252.44140625 C159.08112331 250.99877901 160.41836157 249.56508786 161.77734375 248.15234375 C163.35129767 246.51947731 163.35129767 246.51947731 165 244 C164.74180536 239.40726496 162.5780213 236.67098883 159.875 233.0625 C158.96236889 231.82343363 158.05239155 230.58240992 157.14453125 229.33984375 C156.6438916 228.65519043 156.14325195 227.97053711 155.62744141 227.26513672 C152.52205916 222.94294403 149.54997502 218.52910665 146.5625 214.125 C145.264409 212.21478525 143.96623279 210.3046284 142.66796875 208.39453125 C142.04325684 207.47494629 141.41854492 206.55536133 140.77490234 205.60791016 C138.32022019 202.00118185 135.84987036 198.40539385 133.375 194.8125 C129.40624616 189.04876187 125.44982142 183.27672945 121.5 177.5 C116.12652566 169.642084 110.73910978 161.7938889 105.34277344 153.95166016 C103.06091481 150.63508236 100.78054245 147.3174829 98.5 144 C97.58334024 142.66666192 96.66667358 141.33332858 95.75 140 C79.25 116 62.75 92 46.25 68 C45.5696167 67.01036255 45.5696167 67.01036255 44.87548828 66.00073242 C43.95716639 64.66497667 43.0388722 63.32920188 42.12060547 61.9934082 C39.85448843 58.69698255 37.58791941 55.40086973 35.3203125 52.10546875 C34.42184593 50.79949916 33.52340863 49.49350944 32.625 48.1875 C32.17423096 47.53233398 31.72346191 46.87716797 31.2590332 46.20214844 C28.80290044 42.630063 26.35277571 39.05399766 23.91015625 35.47265625 C22.83602013 33.89838112 21.76180036 32.32416305 20.6875 30.75 C20.15568115 29.97052002 19.6238623 29.19104004 19.07592773 28.38793945 C14.22193794 21.29030842 9.2859405 14.25107704 4.31713867 7.23339844 C3.7522876 6.43192383 3.18743652 5.63044922 2.60546875 4.8046875 C1.84979614 3.73710205 1.84979614 3.73710205 1.07885742 2.64794922 C0 1 0 1 0 0 Z " fill="#FEFEFE" transform="translate(171,166)"/>
<path d="M0 0 C7.37067259 -0.34963034 14.73952564 -0.61505625 22.11684895 -0.77718258 C25.54420123 -0.85506458 28.96583482 -0.96033234 32.38989258 -1.1315918 C54.40890648 -2.20423958 54.40890648 -2.20423958 60.27566528 1.39682007 C63.88275455 4.79121243 66.13841825 8.7363153 68.17214966 13.21536255 C69.20037916 15.43196715 70.52262613 17.31240001 71.98828125 19.26171875 C72.76525898 20.40212415 73.54004638 21.54402535 74.3125 22.6875 C75.22839333 24.03047565 76.14510102 25.37289617 77.0625 26.71484375 C77.53558594 27.40690918 78.00867188 28.09897461 78.49609375 28.81201172 C81.24325449 32.80877382 84.02852838 36.7788312 86.8125 40.75 C87.40281006 41.59224121 87.99312012 42.43448242 88.60131836 43.30224609 C89.80415682 45.01788474 91.00720119 46.73337904 92.21044922 48.44873047 C100.84384836 60.75691887 109.45290813 73.08167988 118.03417969 85.42626953 C124.09800618 94.14686679 130.18658311 102.84996444 136.28222656 111.54833984 C139.1896209 115.69786428 142.09468001 119.84902306 145 124 C146.16665575 125.66667431 147.33332241 127.33334098 148.5 129 C150.83333333 132.33333333 153.16666667 135.66666667 155.5 139 C156.07733887 139.8247583 156.65467773 140.6495166 157.24951172 141.49926758 C158.41784967 143.16834507 159.58614384 144.83745322 160.75439453 146.5065918 C163.64513489 150.63662338 166.53659854 154.76614446 169.4296875 158.89453125 C176.31728062 168.72500507 183.18294378 178.57042296 190.03417969 188.42626953 C196.09800618 197.14686679 202.18658311 205.84996444 208.28222656 214.54833984 C211.1896209 218.69786428 214.09468001 222.84902306 217 227 C218.16665575 228.66667431 219.33332241 230.33334098 220.5 232 C222.83333333 235.33333333 225.16666667 238.66666667 227.5 242 C228.07733887 242.8247583 228.65467773 243.6495166 229.24951172 244.49926758 C230.41784967 246.16834507 231.58614384 247.83745322 232.75439453 249.5065918 C235.64513489 253.63662338 238.53659854 257.76614446 241.4296875 261.89453125 C248.31728062 271.72500507 255.18294378 281.57042296 262.03417969 291.42626953 C268.09800618 300.14686679 274.18658311 308.84996444 280.28222656 317.54833984 C283.1896209 321.69786428 286.09468001 325.84902306 289 330 C290.16665575 331.66667431 291.33332241 333.33334098 292.5 335 C294.83333333 338.33333333 297.16666667 341.66666667 299.5 345 C300.07862793 345.82653076 300.65725586 346.65306152 301.25341797 347.50463867 C302.40899787 349.15562864 303.56427606 350.80682983 304.71923828 352.45825195 C307.80296989 356.86663603 310.89328716 361.27023148 313.9921875 365.66796875 C314.641875 366.59158203 315.2915625 367.51519531 315.9609375 368.46679688 C317.21685115 370.25198842 318.47460329 372.03588827 319.734375 373.81835938 C320.29382813 374.61435547 320.85328125 375.41035156 321.4296875 376.23046875 C321.92710449 376.93582764 322.42452148 377.64118652 322.93701172 378.36791992 C324 380 324 380 324 381 C316.49940622 381.37286048 308.9997833 381.656032 301.49199963 381.82899475 C298.00376114 381.91208816 294.52191109 382.02439124 291.03735352 382.20703125 C268.64593958 383.34985679 268.64593958 383.34985679 262.72702026 379.53503418 C259.07939297 375.89489363 256.89964501 371.67020711 254.88424683 366.97094727 C253.69329663 364.31637168 252.09310122 362.09046733 250.35546875 359.765625 C249.83146484 359.01796875 249.30746094 358.2703125 248.76757812 357.5 C247.98543945 356.38625 247.98543945 356.38625 247.1875 355.25 C245.99347061 353.54688831 244.79946076 351.8437629 243.60546875 350.140625 C243.00911621 349.29048828 242.41276367 348.44035156 241.79833984 347.56445312 C238.86275018 343.37826879 235.93153649 339.18902323 233 335 C229.52458046 330.03435462 226.04868566 325.06904574 222.5703125 320.10546875 C215.68271938 310.27499493 208.81705622 300.42957704 201.96582031 290.57373047 C195.90199382 281.85313321 189.81341689 273.15003556 183.71777344 264.45166016 C180.8103791 260.30213572 177.90531999 256.15097694 175 252 C173.83334425 250.33332569 172.66667759 248.66665902 171.5 247 C164.5 237 157.5 227 150.5 217 C149.92266113 216.1752417 149.34532227 215.3504834 148.75048828 214.50073242 C147.58215033 212.83165493 146.41385616 211.16254678 145.24560547 209.4934082 C142.35486511 205.36337662 139.46340146 201.23385554 136.5703125 197.10546875 C129.68271938 187.27499493 122.81705622 177.42957704 115.96582031 167.57373047 C109.90199382 158.85313321 103.81341689 150.15003556 97.71777344 141.45166016 C94.8103791 137.30213572 91.90531999 133.15097694 89 129 C87.83334425 127.33332569 86.66667759 125.66665902 85.5 124 C83.16666667 120.66666667 80.83333333 117.33333333 78.5 114 C77.92266113 113.1752417 77.34532227 112.3504834 76.75048828 111.50073242 C75.58215033 109.83165493 74.41385616 108.16254678 73.24560547 106.4934082 C70.35486511 102.36337662 67.46340146 98.23385554 64.5703125 94.10546875 C57.68271938 84.27499493 50.81705622 74.42957704 43.96582031 64.57373047 C37.90801974 55.86179929 31.82517555 47.16759059 25.73535156 38.47802734 C23.9441315 35.92022155 22.15536561 33.36071448 20.3671875 30.80078125 C19.16146145 29.07551865 17.95573232 27.35025821 16.75 25.625 C15.8832666 24.38351196 15.8832666 24.38351196 14.99902344 23.11694336 C12.32477275 19.29303978 9.63642202 15.48171972 6.8984375 11.703125 C6.42696289 11.05134277 5.95548828 10.39956055 5.46972656 9.72802734 C4.59837293 8.52730583 3.7229648 7.32951203 2.84277344 6.13525391 C0 2.21948471 0 2.21948471 0 0 Z " fill="#30507A" transform="translate(222,194)"/>
</svg>
