<?xml version="1.0" encoding="UTF-8"?>
<svg version="1.1" xmlns="http://www.w3.org/2000/svg" width="512" height="512">
<path d="M0 0 C0.85318817 -0.00705963 1.70637634 -0.01411926 2.5854187 -0.02139282 C77.10840066 -0.49773209 141.93400892 24.37292576 195.40820312 76.76318359 C201.95394006 83.24529049 208.10268029 89.85389108 213.6796875 97.203125 C214.1123291 97.76999023 214.5449707 98.33685547 214.99072266 98.92089844 C221.41876653 107.37920591 227.31780868 116.02050617 232.6796875 125.203125 C233.20876709 126.09306152 233.20876709 126.09306152 233.74853516 127.00097656 C247.72757563 150.56863986 257.30061613 175.99366141 263.1171875 202.765625 C263.46946411 204.38500977 263.46946411 204.38500977 263.82885742 206.03710938 C267.2181637 222.65110977 268.0901258 239.15884349 268.0546875 256.078125 C268.05387177 257.5531398 268.05387177 257.5531398 268.05303955 259.05795288 C268.01163888 275.40840176 267.03325159 291.15227342 263.6796875 307.203125 C263.47069824 308.21987305 263.26170898 309.23662109 263.04638672 310.28417969 C250.93764827 367.26327704 218.25846848 421.6759554 171.6796875 457.203125 C171.01372559 457.71842773 170.34776367 458.23373047 169.66162109 458.76464844 C158.19931929 467.60274611 146.48263781 475.44368443 133.6796875 482.203125 C132.76010254 482.69022949 131.84051758 483.17733398 130.89306641 483.67919922 C107.1492484 496.07056644 82.04979538 504.49219194 55.6796875 509.203125 C54.73867188 509.37416748 53.79765625 509.54520996 52.828125 509.72143555 C38.97623432 511.8406803 24.65417433 511.44494598 10.6796875 511.453125 C9.11797821 511.45413712 9.11797821 511.45413712 7.52471924 511.45516968 C-7.61734778 511.43959471 -22.42008053 511.17498124 -37.3203125 508.203125 C-38.17979492 508.03683594 -39.03927734 507.87054688 -39.92480469 507.69921875 C-61.59956911 503.36587081 -82.50279372 495.9314963 -102.3203125 486.203125 C-103.05830078 485.84105957 -103.79628906 485.47899414 -104.55664062 485.10595703 C-129.25588403 472.82807129 -150.61786058 456.40349335 -170.3203125 437.203125 C-171.20460938 436.35878906 -172.08890625 435.51445312 -173 434.64453125 C-178.59986317 429.20936994 -183.4730976 423.30997799 -188.3203125 417.203125 C-189.19398881 416.14213778 -190.06903275 415.08227553 -190.9453125 414.0234375 C-197.79654962 405.65406335 -203.55094998 396.8341757 -208.98828125 387.49121094 C-209.85603207 386.00063896 -210.73070776 384.51407012 -211.61328125 383.03222656 C-234.27689652 344.93991935 -244.80002542 301.23444413 -244.6328125 257.140625 C-244.63098969 256.14456238 -244.62916687 255.14849976 -244.62728882 254.12225342 C-244.58254505 239.60982213 -244.12500293 225.48002981 -241.3203125 211.203125 C-241.15934082 210.30754883 -240.99836914 209.41197266 -240.83251953 208.48925781 C-231.86945772 158.94703141 -207.87454475 114.4834706 -173.3203125 78.203125 C-172.75006348 77.60419434 -172.17981445 77.00526367 -171.59228516 76.38818359 C-163.59203124 68.04785969 -155.37564293 60.40260364 -146.08837891 53.51806641 C-144.28088891 52.173805 -142.49357638 50.80553373 -140.70703125 49.43359375 C-126.88865364 38.93089321 -111.94697821 30.68420968 -96.3203125 23.203125 C-95.40378906 22.75453125 -94.48726562 22.3059375 -93.54296875 21.84375 C-64.87725425 8.2396821 -31.76289879 0.17674141 0 0 Z " fill="#30507A" transform="translate(244.3203125,0.796875)"/>
<path d="M0 0 C0.66697906 -0.00039276 1.33395813 -0.00078552 2.02114868 -0.00119019 C38.22124429 0.02406107 38.22124429 0.02406107 50.875 3.1875 C50.875 23.9775 50.875 44.7675 50.875 66.1875 C29.5625 66.5625 29.5625 66.5625 22.9050293 66.66552734 C21.12807832 66.70079278 19.35114032 66.73672043 17.57421875 66.7734375 C16.23357361 66.79047729 16.23357361 66.79047729 14.86584473 66.80786133 C3.64816521 67.06014893 -7.23153316 68.29403316 -15.5 76.5625 C-19.57200457 83.14035353 -21.20949296 89.24898312 -21.33032227 96.89575195 C-21.35050415 98.03210083 -21.37068604 99.16844971 -21.39147949 100.3392334 C-21.40795532 101.52279419 -21.42443115 102.70635498 -21.44140625 103.92578125 C-21.46938293 105.56951721 -21.46938293 105.56951721 -21.4979248 107.24645996 C-21.56610456 111.33089309 -21.62632846 115.4154559 -21.6875 119.5 C-21.831875 128.636875 -21.97625 137.77375 -22.125 147.1875 C1.305 147.1875 24.735 147.1875 48.875 147.1875 C47.410625 158.716875 45.94625 170.24625 44.4375 182.125 C43.74636108 187.59308228 43.74636108 187.59308228 43.04125977 193.17163086 C42.4744873 197.61047363 42.4744873 197.61047363 42.20835876 199.68605042 C42.02265995 201.14080615 41.83866301 202.59577972 41.6559906 204.05091858 C41.37952747 206.25053728 41.09773055 208.44941179 40.81469727 210.64819336 C40.65703384 211.88951523 40.49937042 213.1308371 40.33692932 214.40977478 C39.875 217.1875 39.875 217.1875 38.875 218.1875 C18.745 218.1875 -1.385 218.1875 -22.125 218.1875 C-22.125 284.5175 -22.125 350.8475 -22.125 419.1875 C-32.25555345 420.31311705 -32.25555345 420.31311705 -36.20727539 420.33276367 C-37.09592789 420.33914352 -37.98458038 420.34552338 -38.90016174 420.35209656 C-39.83158493 420.35320938 -40.76300812 420.3543222 -41.72265625 420.35546875 C-42.71518906 420.35879715 -43.70772186 420.36212555 -44.73033142 420.36555481 C-46.82208802 420.37059153 -48.91385257 420.37296415 -51.00561523 420.37280273 C-54.1542742 420.37497706 -57.30257525 420.3931345 -60.45117188 420.41210938 C-71.76924415 420.44349045 -82.97045239 420.32671477 -94.125 418.1875 C-95.86891999 416.44358001 -95.24742552 414.17387702 -95.25408131 411.84996885 C-95.24971205 410.69289005 -95.24971205 410.69289005 -95.24525452 409.51243591 C-95.24610894 408.69895457 -95.24696337 407.88547322 -95.24784368 407.04734093 C-95.24950097 404.30033759 -95.24397306 401.55339427 -95.23852539 398.80639648 C-95.23824355 396.84568279 -95.2384012 394.884969 -95.2389679 392.92425537 C-95.23925598 387.58356666 -95.23335752 382.24290019 -95.22639394 376.90221667 C-95.22016218 371.32747684 -95.21955674 365.75273655 -95.21836853 360.17799377 C-95.21525469 349.61343909 -95.20704059 339.04889469 -95.19701904 328.48434454 C-95.18585955 316.4603677 -95.18034787 304.43639039 -95.17532361 292.41240966 C-95.16485801 267.67076608 -95.14651188 242.92913661 -95.125 218.1875 C-115.585 218.1875 -136.045 218.1875 -157.125 218.1875 C-157.125 194.7575 -157.125 171.3275 -157.125 147.1875 C-136.665 147.1875 -116.205 147.1875 -95.125 147.1875 C-95.15980469 142.54816406 -95.19460937 137.90882813 -95.23046875 133.12890625 C-95.24583497 130.15298185 -95.26027933 127.17710781 -95.27148438 124.20117188 C-95.28927373 119.49916156 -95.31009125 114.79732987 -95.35131836 110.09545898 C-95.38441799 106.29582225 -95.40195693 102.4963776 -95.40963173 98.69660759 C-95.41508615 97.26205364 -95.42573017 95.82750768 -95.44219017 94.3930378 C-95.71060823 69.98300743 -89.82132447 45.69934714 -73.125 27.1875 C-72.53332031 26.50300781 -71.94164062 25.81851563 -71.33203125 25.11328125 C-53.08862244 5.31393139 -25.7680773 -0.01444669 0 0 Z " fill="#FEFEFE" transform="translate(309.125,91.8125)"/>
</svg>
